<svg width="129" height="129" viewBox="0 0 129 129" fill="none" xmlns="http://www.w3.org/2000/svg">
<g opacity="0.45">
<path d="M10.75 32.25C10.75 26.5478 13.0152 21.0792 17.0472 17.0472C21.0792 13.0152 26.5478 10.75 32.25 10.75H96.75C102.452 10.75 107.921 13.0152 111.953 17.0472C115.985 21.0792 118.25 26.5478 118.25 32.25V96.75C118.25 102.452 115.985 107.921 111.953 111.953C107.921 115.985 102.452 118.25 96.75 118.25H32.25C26.5478 118.25 21.0792 115.985 17.0472 111.953C13.0152 107.921 10.75 102.452 10.75 96.75V32.25Z" stroke="white" stroke-width="2" stroke-linecap="round" stroke-linejoin="round"/>
<path d="M45.6875 59.125C53.1088 59.125 59.125 53.1088 59.125 45.6875C59.125 38.2662 53.1088 32.25 45.6875 32.25C38.2662 32.25 32.25 38.2662 32.25 45.6875C32.25 53.1088 38.2662 59.125 45.6875 59.125Z" stroke="white" stroke-width="2" stroke-linecap="round" stroke-linejoin="round"/>
<path d="M78.0773 67.8381L32.25 118.25H97.4649C102.977 118.25 108.264 116.06 112.162 112.162C116.06 108.264 118.25 102.978 118.25 97.4651V96.7502C118.25 94.2454 117.309 93.2833 115.616 91.4289L93.955 67.8058C92.9454 66.7046 91.7174 65.8258 90.3493 65.2257C88.9812 64.6255 87.503 64.3171 86.009 64.3202C84.515 64.3232 83.0381 64.6376 81.6724 65.2433C80.3068 65.849 79.0823 66.7327 78.0773 67.8381V67.8381Z" stroke="white" stroke-width="2" stroke-linecap="round" stroke-linejoin="round"/>
</g>
</svg>
